<?xml version="1.0" standalone="no"?>
<!DOCTYPE svg PUBLIC "-//W3C//DTD SVG 20010904//EN"
 "http://www.w3.org/TR/2001/REC-SVG-20010904/DTD/svg10.dtd">
<svg version="1.0" xmlns="http://www.w3.org/2000/svg"
 width="512.000000pt" height="512.000000pt" viewBox="0 0 512.000000 512.000000"
 preserveAspectRatio="xMidYMid meet">
<metadata>
Created by potrace 1.11, written by Peter Selinger 2001-2013
</metadata>
<g transform="translate(0.000000,512.000000) scale(0.100000,-0.100000)"
fill="#000000" stroke="none">
<path d="M2758 4985 c-2 -2 -35 -6 -73 -9 -265 -21 -496 -123 -654 -289 -56
-59 -87 -104 -141 -205 -42 -80 -48 -86 -95 -104 -85 -32 -156 -68 -225 -113
-262 -172 -463 -465 -599 -871 -44 -130 -41 -165 15 -203 26 -18 42 -22 70
-18 53 9 77 37 109 130 144 419 322 671 576 815 l56 32 6 -113 c8 -151 34
-230 110 -335 66 -92 184 -170 313 -208 130 -38 183 -43 384 -37 300 8 568 8
645 0 114 -12 128 -14 175 -21 94 -16 329 -76 430 -111 58 -20 154 -61 213
-90 l108 -53 -7 36 c-28 159 -115 457 -196 672 -54 145 -184 407 -258 520
-246 374 -502 547 -835 566 -55 3 -105 7 -112 9 -6 2 -13 2 -15 0z"/>
<path d="M4313 3126 c-34 -16 -63 -61 -63 -99 0 -27 33 -75 106 -157 172 -191
313 -445 355 -636 7 -32 14 -66 16 -74 5 -23 11 -204 7 -212 -2 -3 -35 11 -72
32 -105 61 -182 83 -294 86 -172 4 -290 -48 -434 -191 -110 -110 -152 -174
-279 -423 -54 -107 -131 -246 -172 -310 -172 -269 -399 -515 -614 -668 -30
-21 -56 -41 -59 -44 -3 -4 -29 -20 -59 -37 l-53 -30 113 -36 c219 -67 516
-135 669 -152 30 -4 69 -8 85 -11 152 -23 496 -22 630 1 340 60 559 189 710
415 152 228 215 434 210 675 -5 176 -49 313 -148 457 -25 36 -44 68 -42 70 18
19 29 327 14 403 -5 28 -11 59 -13 70 -46 244 -226 563 -452 803 -76 79 -106
92 -161 68z"/>
<path d="M870 2951 c-436 -413 -734 -860 -837 -1251 -37 -139 -39 -321 -7
-451 32 -125 127 -319 201 -409 154 -189 271 -279 450 -348 122 -47 270 -65
397 -48 35 5 45 1 101 -44 184 -146 396 -229 650 -255 62 -6 268 -7 315 -1 19
3 60 7 92 10 31 4 94 13 140 22 45 9 94 18 107 20 56 11 92 34 107 69 24 58 6
112 -47 138 -30 14 -61 15 -116 2 -56 -13 -71 -15 -123 -24 -115 -20 -149 -23
-285 -26 -221 -4 -381 28 -542 108 -80 39 -131 77 -103 77 24 0 127 70 188
127 156 148 208 344 151 571 -35 140 -83 239 -213 437 -51 77 -113 174 -138
215 -53 89 -160 308 -178 365 -7 22 -16 45 -20 50 -9 12 -52 145 -79 245 -24
86 -47 206 -56 282 -3 29 -8 67 -10 83 -2 17 -4 58 -4 93 -1 34 -4 62 -8 62
-5 0 -64 -54 -133 -119z"/>
</g>
</svg>
